<svg width="24" height="24" viewBox="0 0 24 24" fill="none" xmlns="http://www.w3.org/2000/svg">
<path d="M23.9999 1.05768C24.0019 0.919493 23.9763 0.782296 23.9248 0.654061C23.8733 0.525826 23.7968 0.409111 23.6997 0.310699C23.6027 0.212288 23.4871 0.134143 23.3596 0.0808046C23.2321 0.0274663 23.0953 0 22.9571 0C22.8189 0 22.682 0.0274663 22.5546 0.0808046C22.4271 0.134143 22.3114 0.212288 22.2144 0.310699C22.1174 0.409111 22.0409 0.525826 21.9893 0.654061C21.9378 0.782296 21.9123 0.919493 21.9142 1.05768V7.31465C21.9142 15.3898 15.3898 21.9142 7.31465 21.9142H1.05768C0.919494 21.9123 0.782297 21.9378 0.654062 21.9893C0.525827 22.0409 0.409112 22.1174 0.310701 22.2144C0.212289 22.3114 0.134144 22.4271 0.0808059 22.5546C0.0274676 22.682 1.26656e-06 22.8189 1.26656e-06 22.9571C1.26656e-06 23.0953 0.0274676 23.2321 0.0808059 23.3596C0.134144 23.4871 0.212289 23.6027 0.310701 23.6997C0.409112 23.7968 0.525827 23.8733 0.654062 23.9248C0.782297 23.9763 0.919494 24.0018 1.05768 23.9999H7.31465C16.5171 23.9999 23.9999 16.5171 23.9999 7.31465V1.05768Z" fill="white"/>
</svg>
