<svg width="24" height="24" viewBox="0 0 24 24" fill="none" xmlns="http://www.w3.org/2000/svg">
<path d="M22.9423 23.9999C23.0805 24.0019 23.2177 23.9763 23.3459 23.9248C23.4742 23.8733 23.5909 23.7968 23.6893 23.6997C23.7877 23.6027 23.8659 23.4871 23.9192 23.3596C23.9725 23.2321 24 23.0953 24 22.9571C24 22.8189 23.9725 22.682 23.9192 22.5546C23.8659 22.4271 23.7877 22.3114 23.6893 22.2144C23.5909 22.1174 23.4742 22.0409 23.3459 21.9893C23.2177 21.9378 23.0805 21.9123 22.9423 21.9142H16.6854C8.61019 21.9142 2.08576 15.3898 2.08576 7.31465V1.05768C2.08771 0.919494 2.06218 0.782297 2.01065 0.654062C1.95912 0.525827 1.88262 0.409112 1.78559 0.310701C1.68856 0.212289 1.57294 0.134144 1.44545 0.0808059C1.31796 0.0274676 1.18113 1.26656e-06 1.04293 1.26656e-06C0.904732 1.26656e-06 0.767909 0.0274676 0.640415 0.0808059C0.512922 0.134144 0.397304 0.212289 0.300274 0.310701C0.203245 0.409112 0.126741 0.525827 0.0752107 0.654062C0.0236807 0.782297 -0.00184961 0.919494 0.000104696 1.05768V7.31465C0.000104696 16.5171 7.48294 23.9999 16.6854 23.9999H22.9423Z" fill="white"/>
</svg>
