<svg width="24" height="24" viewBox="0 0 24 24" fill="none" xmlns="http://www.w3.org/2000/svg">
<path d="M0.00010429 22.9423C-0.00185002 23.0805 0.0236798 23.2177 0.0752098 23.3459C0.12674 23.4742 0.203242 23.5909 0.300272 23.6893C0.397301 23.7877 0.512922 23.8659 0.640415 23.9192C0.767909 23.9725 0.904731 24 1.04293 24C1.18113 24 1.31796 23.9725 1.44545 23.9192C1.57294 23.8659 1.68856 23.7877 1.78559 23.6893C1.88262 23.5909 1.95912 23.4742 2.01065 23.3459C2.06218 23.2177 2.08771 23.0805 2.08576 22.9423L2.08576 16.6854C2.08576 8.61019 8.61019 2.08576 16.6854 2.08576H22.9423C23.0805 2.08771 23.2177 2.06218 23.3459 2.01065C23.4742 1.95912 23.5909 1.88262 23.6893 1.78559C23.7877 1.68856 23.8659 1.57294 23.9192 1.44545C23.9725 1.31796 24 1.18113 24 1.04293C24 0.904732 23.9725 0.767909 23.9192 0.640415C23.8659 0.512922 23.7877 0.397304 23.6893 0.300274C23.5909 0.203245 23.4742 0.126741 23.3459 0.0752107C23.2177 0.0236807 23.0805 -0.00184961 22.9423 0.000104696H16.6854C7.48294 0.000104696 0.00010429 7.48294 0.00010429 16.6854L0.00010429 22.9423Z" fill="white"/>
</svg>
