<svg width="24" height="24" viewBox="0 0 24 24" fill="none" xmlns="http://www.w3.org/2000/svg">
<path d="M1.05768 0.00010429C0.919493 -0.00185002 0.782296 0.0236798 0.654061 0.0752098C0.525826 0.12674 0.409111 0.203242 0.310699 0.300272C0.212288 0.397301 0.134143 0.512922 0.0808046 0.640415C0.0274663 0.767909 0 0.904731 0 1.04293C0 1.18113 0.0274663 1.31796 0.0808046 1.44545C0.134143 1.57294 0.212288 1.68856 0.310699 1.78559C0.409111 1.88262 0.525826 1.95912 0.654061 2.01065C0.782296 2.06218 0.919493 2.08771 1.05768 2.08576H7.31465C15.3898 2.08576 21.9142 8.61019 21.9142 16.6854V22.9423C21.9123 23.0805 21.9378 23.2177 21.9893 23.3459C22.0409 23.4742 22.1174 23.5909 22.2144 23.6893C22.3114 23.7877 22.4271 23.8659 22.5546 23.9192C22.682 23.9725 22.8189 24 22.9571 24C23.0953 24 23.2321 23.9725 23.3596 23.9192C23.4871 23.8659 23.6027 23.7877 23.6997 23.6893C23.7968 23.5909 23.8733 23.4742 23.9248 23.3459C23.9763 23.2177 24.0018 23.0805 23.9999 22.9423V16.6854C23.9999 7.48294 16.5171 0.00010429 7.31465 0.00010429H1.05768Z" fill="white"/>
</svg>
